P2
# imagem8Cinza.pgm
4 4
8
0   0   1   1
2   2   3   3
4   5   5   5     
5   5   6   7