P2
# imagem8Cinza.pgm
8 8
8
4  4  4  4  4  5  4  4  
4  2  2  2  2  5  4  4  
4  2  5  5  2  5  4  4  
4  2  2  2  2  5  4  4  
4  3  3  3  3  5  4  4  
4  3  3  3  3  5  4  4  
4  3  4  3  3  5  4  4  
4  3  3  3  3  5  4  4  
